<svg width="1706" height="540" viewBox="0 0 1706 540" fill="none" xmlns="http://www.w3.org/2000/svg">
<path d="M745.071 200.131C759.203 203.143 770.555 210.209 779.127 221.33C787.699 232.218 791.985 244.729 791.985 258.861C791.985 279.248 784.803 295.465 770.439 307.513C756.307 319.328 736.499 325.236 711.015 325.236H597.378V81.2821H707.192C731.981 81.2821 751.326 86.9581 765.227 98.3102C779.359 109.662 786.425 125.069 786.425 144.529C786.425 158.893 782.602 170.824 774.957 180.323C767.543 189.822 757.581 196.425 745.071 200.131ZM656.803 179.976H695.724C705.455 179.976 712.868 177.891 717.965 173.72C723.293 169.319 725.958 162.947 725.958 154.607C725.958 146.267 723.293 139.896 717.965 135.494C712.868 131.092 705.455 128.891 695.724 128.891H656.803V179.976ZM700.589 277.279C710.551 277.279 718.197 275.078 723.525 270.676C729.085 266.043 731.865 259.44 731.865 250.868C731.865 242.296 728.97 235.578 723.178 230.712C717.617 225.847 709.856 223.415 699.894 223.415H656.803V277.279H700.589Z" fill="#2EB7E5"/>
<path d="M1009.24 225.152C1009.24 230.712 1008.9 236.504 1008.2 242.528H873.713C874.64 254.575 878.462 263.842 885.181 270.329C892.131 276.584 900.587 279.712 910.549 279.712C925.376 279.712 935.686 273.456 941.478 260.946H1004.73C1001.48 273.688 995.574 285.156 987.002 295.35C978.662 305.543 968.12 313.536 955.378 319.328C942.636 325.12 928.388 328.016 912.634 328.016C893.637 328.016 876.725 323.962 861.897 315.853C847.07 307.744 835.487 296.161 827.146 281.102C818.806 266.043 814.636 248.436 814.636 228.28C814.636 208.124 818.69 190.517 826.799 175.458C835.139 160.399 846.723 148.815 861.55 140.707C876.377 132.598 893.405 128.544 912.634 128.544C931.4 128.544 948.081 132.482 962.676 140.359C977.272 148.236 988.624 159.472 996.732 174.068C1005.07 188.663 1009.24 205.692 1009.24 225.152ZM948.428 209.514C948.428 199.32 944.953 191.212 938.003 185.188C931.052 179.165 922.365 176.153 911.939 176.153C901.977 176.153 893.521 179.049 886.571 184.841C879.852 190.633 875.682 198.857 874.06 209.514H948.428Z" fill="#2EB7E5"/>
<path d="M1100.02 68.0767V325.236H1040.59V68.0767H1100.02Z" fill="#2EB7E5"/>
<path d="M1131.27 227.932C1131.27 208.008 1134.97 190.517 1142.39 175.458C1150.03 160.399 1160.34 148.815 1173.31 140.707C1186.29 132.598 1200.77 128.544 1216.75 128.544C1230.42 128.544 1242.35 131.324 1252.55 136.884C1262.97 142.444 1270.97 149.742 1276.53 158.777V131.324H1335.95V325.236H1276.53V297.782C1270.73 306.818 1262.63 314.115 1252.2 319.676C1242.01 325.236 1230.07 328.016 1216.41 328.016C1200.65 328.016 1186.29 323.962 1173.31 315.853C1160.34 307.513 1150.03 295.813 1142.39 280.754C1134.97 265.464 1131.27 247.856 1131.27 227.932ZM1276.53 228.28C1276.53 213.453 1272.36 201.753 1264.02 193.181C1255.91 184.609 1245.94 180.323 1234.13 180.323C1222.31 180.323 1212.24 184.609 1203.9 193.181C1195.79 201.521 1191.73 213.105 1191.73 227.932C1191.73 242.759 1195.79 254.575 1203.9 263.379C1212.24 271.95 1222.31 276.236 1234.13 276.236C1245.94 276.236 1255.91 271.95 1264.02 263.379C1272.36 254.807 1276.53 243.107 1276.53 228.28Z" fill="#2EB7E5"/>
<path d="M1626.37 129.239C1650.46 129.239 1669.58 136.537 1683.71 151.132C1698.07 165.728 1705.26 185.999 1705.26 211.947V325.236H1646.18V219.94C1646.18 207.429 1642.82 197.815 1636.1 191.096C1629.61 184.146 1620.58 180.671 1608.99 180.671C1597.41 180.671 1588.26 184.146 1581.54 191.096C1575.05 197.815 1571.81 207.429 1571.81 219.94V325.236H1512.73V219.94C1512.73 207.429 1509.37 197.815 1502.66 191.096C1496.17 184.146 1487.13 180.671 1475.55 180.671C1463.97 180.671 1454.81 184.146 1448.1 191.096C1441.61 197.815 1438.37 207.429 1438.37 219.94V325.236H1378.94V131.324H1438.37V155.65C1444.39 147.541 1452.27 141.17 1462 136.537C1471.73 131.671 1482.73 129.239 1495.01 129.239C1509.61 129.239 1522.58 132.366 1533.93 138.622C1545.52 144.877 1554.55 153.796 1561.04 165.38C1567.76 154.723 1576.91 146.035 1588.49 139.317C1600.07 132.598 1612.7 129.239 1626.37 129.239Z" fill="#2EB7E5"/>
<path d="M600.678 422.367C600.678 412.052 602.91 402.878 607.373 394.845C611.836 386.712 618.035 380.414 625.969 375.951C634.002 371.389 643.077 369.108 653.194 369.108C665.591 369.108 676.203 372.381 685.03 378.927C693.857 385.472 699.758 394.399 702.733 405.705H674.765C672.682 401.341 669.707 398.019 665.839 395.737C662.07 393.456 657.756 392.316 652.896 392.316C645.061 392.316 638.713 395.043 633.854 400.498C628.994 405.953 626.564 413.243 626.564 422.367C626.564 431.491 628.994 438.781 633.854 444.236C638.713 449.691 645.061 452.418 652.896 452.418C657.756 452.418 662.07 451.278 665.839 448.997C669.707 446.715 672.682 443.393 674.765 439.029H702.733C699.758 450.336 693.857 459.262 685.03 465.807C676.203 472.254 665.591 475.477 653.194 475.477C643.077 475.477 634.002 473.246 625.969 468.783C618.035 464.221 611.836 457.923 607.373 449.889C602.91 441.856 600.678 432.682 600.678 422.367Z" fill="#EC198A"/>
<path d="M713.254 433.078C713.254 424.549 714.841 417.061 718.015 410.614C721.288 404.168 725.701 399.209 731.255 395.737C736.809 392.266 743.008 390.531 749.851 390.531C755.703 390.531 760.81 391.721 765.174 394.101C769.637 396.481 773.059 399.605 775.439 403.473V391.721H800.879V474.734H775.439V462.981C772.96 466.849 769.489 469.973 765.026 472.353C760.662 474.734 755.554 475.924 749.702 475.924C742.958 475.924 736.809 474.188 731.255 470.717C725.701 467.146 721.288 462.138 718.015 455.691C714.841 449.145 713.254 441.608 713.254 433.078ZM775.439 433.227C775.439 426.88 773.654 421.871 770.084 418.202C766.612 414.532 762.348 412.697 757.29 412.697C752.231 412.697 747.917 414.532 744.347 418.202C740.875 421.772 739.14 426.731 739.14 433.078C739.14 439.426 740.875 444.484 744.347 448.253C747.917 451.922 752.231 453.757 757.29 453.757C762.348 453.757 766.612 451.922 770.084 448.253C773.654 444.583 775.439 439.575 775.439 433.227Z" fill="#EC198A"/>
<path d="M869.864 390.828C879.584 390.828 887.32 394.002 893.072 400.349C898.924 406.598 901.85 415.226 901.85 426.235V474.734H876.559V429.657C876.559 424.103 875.121 419.788 872.245 416.714C869.368 413.639 865.5 412.102 860.641 412.102C855.781 412.102 851.913 413.639 849.037 416.714C846.161 419.788 844.722 424.103 844.722 429.657V474.734H819.283V391.721H844.722V402.73C847.301 399.06 850.772 396.184 855.136 394.101C859.5 391.919 864.41 390.828 869.864 390.828Z" fill="#EC198A"/>
<path d="M914.469 433.227C914.469 424.599 916.205 417.061 919.676 410.614C923.247 404.168 928.156 399.209 934.404 395.737C940.752 392.266 947.992 390.531 956.125 390.531C966.538 390.531 975.216 393.258 982.159 398.713C989.201 404.168 993.813 411.854 995.995 421.772H968.919C966.638 415.424 962.224 412.251 955.678 412.251C951.017 412.251 947.298 414.086 944.521 417.755C941.744 421.326 940.355 426.483 940.355 433.227C940.355 439.971 941.744 445.178 944.521 448.848C947.298 452.418 951.017 454.203 955.678 454.203C962.224 454.203 966.638 451.03 968.919 444.682H995.995C993.813 454.402 989.201 462.039 982.159 467.593C975.117 473.147 966.439 475.924 956.125 475.924C947.992 475.924 940.752 474.188 934.404 470.717C928.156 467.246 923.247 462.287 919.676 455.84C916.205 449.393 914.469 441.856 914.469 433.227Z" fill="#EC198A"/>
<path d="M1087.85 431.888C1087.85 434.269 1087.71 436.748 1087.41 439.327H1029.83C1030.23 444.484 1031.87 448.451 1034.74 451.228C1037.72 453.906 1041.34 455.245 1045.6 455.245C1051.95 455.245 1056.37 452.567 1058.84 447.211H1085.92C1084.53 452.666 1082 457.576 1078.33 461.939C1074.76 466.303 1070.25 469.725 1064.8 472.204C1059.34 474.684 1053.24 475.924 1046.5 475.924C1038.36 475.924 1031.12 474.188 1024.78 470.717C1018.43 467.246 1013.47 462.287 1009.9 455.84C1006.33 449.393 1004.54 441.856 1004.54 433.227C1004.54 424.599 1006.28 417.061 1009.75 410.614C1013.32 404.168 1018.28 399.209 1024.63 395.737C1030.98 392.266 1038.26 390.531 1046.5 390.531C1054.53 390.531 1061.67 392.217 1067.92 395.589C1074.17 398.961 1079.03 403.771 1082.5 410.019C1086.07 416.268 1087.85 423.557 1087.85 431.888ZM1061.82 425.194C1061.82 420.83 1060.33 417.358 1057.36 414.78C1054.38 412.201 1050.66 410.912 1046.2 410.912C1041.93 410.912 1038.31 412.152 1035.34 414.631C1032.46 417.111 1030.68 420.631 1029.98 425.194H1061.82Z" fill="#EC198A"/>
<path d="M1126.71 405.556C1129.69 400.994 1133.41 397.424 1137.87 394.845C1142.34 392.167 1147.29 390.828 1152.75 390.828V417.755H1145.76C1139.41 417.755 1134.65 419.144 1131.47 421.921C1128.3 424.599 1126.71 429.359 1126.71 436.203V474.734H1101.27V391.721H1126.71V405.556Z" fill="#EC198A"/>
<path d="M1192.12 422.367C1192.12 412.052 1194.35 402.878 1198.81 394.845C1203.28 386.712 1209.48 380.414 1217.41 375.951C1225.44 371.389 1234.52 369.108 1244.64 369.108C1257.03 369.108 1267.65 372.381 1276.47 378.927C1285.3 385.472 1291.2 394.399 1294.18 405.705H1266.21C1264.12 401.341 1261.15 398.019 1257.28 395.737C1253.51 393.456 1249.2 392.316 1244.34 392.316C1236.5 392.316 1230.16 395.043 1225.3 400.498C1220.44 405.953 1218.01 413.243 1218.01 422.367C1218.01 431.491 1220.44 438.781 1225.3 444.236C1230.16 449.691 1236.5 452.418 1244.34 452.418C1249.2 452.418 1253.51 451.278 1257.28 448.997C1261.15 446.715 1264.12 443.393 1266.21 439.029H1294.18C1291.2 450.336 1285.3 459.262 1276.47 465.807C1267.65 472.254 1257.03 475.477 1244.64 475.477C1234.52 475.477 1225.44 473.246 1217.41 468.783C1209.48 464.221 1203.28 457.923 1198.81 449.889C1194.35 441.856 1192.12 432.682 1192.12 422.367Z" fill="#EC198A"/>
<path d="M1388.01 431.888C1388.01 434.269 1387.86 436.748 1387.56 439.327H1329.99C1330.38 444.484 1332.02 448.451 1334.9 451.228C1337.87 453.906 1341.49 455.245 1345.76 455.245C1352.1 455.245 1356.52 452.567 1359 447.211H1386.07C1384.68 452.666 1382.15 457.576 1378.49 461.939C1374.91 466.303 1370.4 469.725 1364.95 472.204C1359.49 474.684 1353.39 475.924 1346.65 475.924C1338.52 475.924 1331.28 474.188 1324.93 470.717C1318.58 467.246 1313.62 462.287 1310.05 455.84C1306.48 449.393 1304.7 441.856 1304.7 433.227C1304.7 424.599 1306.43 417.061 1309.9 410.614C1313.47 404.168 1318.43 399.209 1324.78 395.737C1331.13 392.266 1338.42 390.531 1346.65 390.531C1354.68 390.531 1361.82 392.217 1368.07 395.589C1374.32 398.961 1379.18 403.771 1382.65 410.019C1386.22 416.268 1388.01 423.557 1388.01 431.888ZM1361.97 425.194C1361.97 420.83 1360.48 417.358 1357.51 414.78C1354.53 412.201 1350.81 410.912 1346.35 410.912C1342.09 410.912 1338.47 412.152 1335.49 414.631C1332.61 417.111 1330.83 420.631 1330.14 425.194H1361.97Z" fill="#EC198A"/>
<path d="M1452.01 390.828C1461.73 390.828 1469.46 394.002 1475.22 400.349C1481.07 406.598 1483.99 415.226 1483.99 426.235V474.734H1458.7V429.657C1458.7 424.103 1457.26 419.788 1454.39 416.714C1451.51 413.639 1447.64 412.102 1442.78 412.102C1437.92 412.102 1434.06 413.639 1431.18 416.714C1428.3 419.788 1426.87 424.103 1426.87 429.657V474.734H1401.43V391.721H1426.87V402.73C1429.45 399.06 1432.92 396.184 1437.28 394.101C1441.64 391.919 1446.55 390.828 1452.01 390.828Z" fill="#EC198A"/>
<path d="M1547.94 453.162V474.734H1535C1525.77 474.734 1518.58 472.502 1513.42 468.039C1508.27 463.477 1505.69 456.088 1505.69 445.872V412.846H1495.57V391.721H1505.69V371.488H1531.13V391.721H1547.79V412.846H1531.13V446.17C1531.13 448.649 1531.72 450.435 1532.91 451.526C1534.1 452.617 1536.09 453.162 1538.86 453.162H1547.94Z" fill="#EC198A"/>
<path d="M1640.36 431.888C1640.36 434.269 1640.21 436.748 1639.91 439.327H1582.34C1582.74 444.484 1584.37 448.451 1587.25 451.228C1590.23 453.906 1593.85 455.245 1598.11 455.245C1604.46 455.245 1608.87 452.567 1611.35 447.211H1638.43C1637.04 452.666 1634.51 457.576 1630.84 461.939C1627.27 466.303 1622.76 469.725 1617.3 472.204C1611.85 474.684 1605.75 475.924 1599 475.924C1590.87 475.924 1583.63 474.188 1577.28 470.717C1570.94 467.246 1565.98 462.287 1562.41 455.84C1558.84 449.393 1557.05 441.856 1557.05 433.227C1557.05 424.599 1558.79 417.061 1562.26 410.614C1565.83 404.168 1570.79 399.209 1577.13 395.737C1583.48 392.266 1590.77 390.531 1599 390.531C1607.04 390.531 1614.18 392.217 1620.43 395.589C1626.67 398.961 1631.53 403.771 1635.01 410.019C1638.58 416.268 1640.36 423.557 1640.36 431.888ZM1614.33 425.194C1614.33 420.83 1612.84 417.358 1609.86 414.78C1606.89 412.201 1603.17 410.912 1598.71 410.912C1594.44 410.912 1590.82 412.152 1587.85 414.631C1584.97 417.111 1583.18 420.631 1582.49 425.194H1614.33Z" fill="#EC198A"/>
<path d="M1679.22 405.556C1682.2 400.994 1685.92 397.424 1690.38 394.845C1694.84 392.167 1699.8 390.828 1705.26 390.828V417.755H1698.26C1691.92 417.755 1687.16 419.144 1683.98 421.921C1680.81 424.599 1679.22 429.359 1679.22 436.203V474.734H1653.78V391.721H1679.22V405.556Z" fill="#EC198A"/>
<path d="M464.444 103.333C464.444 103.333 441.786 103.333 436.669 103.333C360.781 103.333 294.642 73.7458 242.219 20C189.8 73.7439 123.666 103.333 47.7803 103.333C42.6636 103.333 20.0025 103.333 20.0025 103.333C20.0025 103.333 20 158.889 20 191.281C20 349.433 114.428 482.322 242.222 520C370.017 482.322 464.444 349.433 464.444 191.281C464.444 158.889 464.444 103.333 464.444 103.333Z" stroke="#EC198A" stroke-width="40" stroke-linecap="round" stroke-linejoin="round"/>
<path fill-rule="evenodd" clip-rule="evenodd" d="M212.843 446.357C218.615 451.558 227.854 448.478 229.35 440.854L250.117 335.041C251.508 327.951 259.73 324.631 265.654 328.768L351.978 389.038C358.295 393.448 367.016 389.36 367.667 381.684L372.605 323.445C372.948 319.399 370.811 315.548 367.197 313.698L269.57 263.729C266.184 261.996 264.074 258.491 264.128 254.687L265.202 178.194C265.241 175.381 264.094 172.682 262.041 170.758L219.014 130.426C216.05 127.647 211.699 126.938 208.007 128.632L141.881 158.96C138.71 160.414 136.526 163.416 136.118 166.881L130.91 211.153C130.565 214.085 131.534 217.019 133.556 219.17L192.653 282.035C194.942 284.47 195.863 287.888 195.108 291.144L169.737 400.569C168.915 404.112 170.082 407.821 172.784 410.256L212.843 446.357ZM215.14 218.449C214.233 225.784 205.958 229.635 199.763 225.605L159.2 199.218C152.681 194.977 153.286 185.244 160.28 181.843L206.906 159.171C214.038 155.703 222.176 161.52 221.203 169.391L215.14 218.449Z" fill="#EC198A"/>
</svg>
